<mxfile host="app.diagrams.net" modified="2024-01-05T17:31:03.822Z" agent="Mozilla/5.0 (Windows NT 10.0; Win64; x64) AppleWebKit/537.36 (KHTML, like Gecko) Chrome/120.0.0.0 Safari/537.36" etag="pC9zJxgFuPhs7fay4etJ" version="22.1.17" type="github">
  <diagram name="페이지-1" id="77rI8swdZOTmp0xYimEe">
    <mxGraphModel dx="1432" dy="760" grid="1" gridSize="10" guides="1" tooltips="1" connect="1" arrows="1" fold="1" page="1" pageScale="1" pageWidth="827" pageHeight="1169" math="0" shadow="0">
      <root>
        <mxCell id="0" />
        <mxCell id="1" parent="0" />
        <mxCell id="15xAG6wFmT7k_TRVZSzg-1" value="" style="rounded=0;whiteSpace=wrap;html=1;" vertex="1" parent="1">
          <mxGeometry x="40" y="40" width="300" height="160" as="geometry" />
        </mxCell>
        <mxCell id="15xAG6wFmT7k_TRVZSzg-2" value="TSLA&amp;nbsp;&amp;nbsp;" style="text;html=1;strokeColor=none;fillColor=none;align=center;verticalAlign=middle;whiteSpace=wrap;rounded=0;" vertex="1" parent="1">
          <mxGeometry x="40" y="40" width="60" height="30" as="geometry" />
        </mxCell>
        <mxCell id="15xAG6wFmT7k_TRVZSzg-4" value="가격" style="text;html=1;strokeColor=none;fillColor=none;align=center;verticalAlign=middle;whiteSpace=wrap;rounded=0;" vertex="1" parent="1">
          <mxGeometry x="180" y="70" width="60" height="30" as="geometry" />
        </mxCell>
        <mxCell id="15xAG6wFmT7k_TRVZSzg-5" value="수량" style="text;html=1;strokeColor=none;fillColor=none;align=center;verticalAlign=middle;whiteSpace=wrap;rounded=0;" vertex="1" parent="1">
          <mxGeometry x="260" y="70" width="60" height="30" as="geometry" />
        </mxCell>
        <mxCell id="15xAG6wFmT7k_TRVZSzg-6" value="best bid price&lt;br&gt;최저 매도 호가" style="text;html=1;strokeColor=none;fillColor=none;align=center;verticalAlign=middle;whiteSpace=wrap;rounded=0;" vertex="1" parent="1">
          <mxGeometry x="60" y="110" width="90" height="30" as="geometry" />
        </mxCell>
        <mxCell id="15xAG6wFmT7k_TRVZSzg-7" value="best ask price&lt;br&gt;최고 매수 호가" style="text;html=1;strokeColor=none;fillColor=none;align=center;verticalAlign=middle;whiteSpace=wrap;rounded=0;" vertex="1" parent="1">
          <mxGeometry x="60" y="148" width="90" height="30" as="geometry" />
        </mxCell>
        <mxCell id="15xAG6wFmT7k_TRVZSzg-8" value="251" style="text;html=1;strokeColor=none;fillColor=none;align=center;verticalAlign=middle;whiteSpace=wrap;rounded=0;" vertex="1" parent="1">
          <mxGeometry x="180" y="100" width="60" height="30" as="geometry" />
        </mxCell>
        <mxCell id="15xAG6wFmT7k_TRVZSzg-9" value="250" style="text;html=1;strokeColor=none;fillColor=none;align=center;verticalAlign=middle;whiteSpace=wrap;rounded=0;" vertex="1" parent="1">
          <mxGeometry x="180" y="148" width="60" height="30" as="geometry" />
        </mxCell>
        <mxCell id="15xAG6wFmT7k_TRVZSzg-10" value="100" style="text;html=1;strokeColor=none;fillColor=none;align=center;verticalAlign=middle;whiteSpace=wrap;rounded=0;" vertex="1" parent="1">
          <mxGeometry x="260" y="100" width="60" height="30" as="geometry" />
        </mxCell>
        <mxCell id="15xAG6wFmT7k_TRVZSzg-11" value="120" style="text;html=1;strokeColor=none;fillColor=none;align=center;verticalAlign=middle;whiteSpace=wrap;rounded=0;" vertex="1" parent="1">
          <mxGeometry x="260" y="148" width="60" height="30" as="geometry" />
        </mxCell>
        <mxCell id="15xAG6wFmT7k_TRVZSzg-23" value="" style="rounded=0;whiteSpace=wrap;html=1;" vertex="1" parent="1">
          <mxGeometry x="40" y="240" width="450" height="390" as="geometry" />
        </mxCell>
        <mxCell id="15xAG6wFmT7k_TRVZSzg-24" value="TSLA&amp;nbsp;&amp;nbsp;" style="text;html=1;strokeColor=none;fillColor=none;align=center;verticalAlign=middle;whiteSpace=wrap;rounded=0;" vertex="1" parent="1">
          <mxGeometry x="40" y="240" width="60" height="30" as="geometry" />
        </mxCell>
        <mxCell id="15xAG6wFmT7k_TRVZSzg-27" value="매도 호가 창" style="text;html=1;strokeColor=none;fillColor=none;align=center;verticalAlign=middle;whiteSpace=wrap;rounded=0;" vertex="1" parent="1">
          <mxGeometry x="60" y="345" width="90" height="30" as="geometry" />
        </mxCell>
        <mxCell id="15xAG6wFmT7k_TRVZSzg-28" value="매수 호가 창" style="text;html=1;strokeColor=none;fillColor=none;align=center;verticalAlign=middle;whiteSpace=wrap;rounded=0;" vertex="1" parent="1">
          <mxGeometry x="60" y="515" width="90" height="30" as="geometry" />
        </mxCell>
        <mxCell id="15xAG6wFmT7k_TRVZSzg-33" value="" style="rounded=0;whiteSpace=wrap;html=1;dashed=1;fillColor=none;" vertex="1" parent="1">
          <mxGeometry x="170" y="270" width="300" height="160" as="geometry" />
        </mxCell>
        <mxCell id="15xAG6wFmT7k_TRVZSzg-35" value="매도 주문 깊이(depth)" style="text;html=1;strokeColor=none;fillColor=none;align=left;verticalAlign=middle;whiteSpace=wrap;rounded=0;" vertex="1" parent="1">
          <mxGeometry x="180" y="300" width="130" height="30" as="geometry" />
        </mxCell>
        <mxCell id="15xAG6wFmT7k_TRVZSzg-40" value="최저 매도 주문" style="text;html=1;strokeColor=none;fillColor=none;align=left;verticalAlign=middle;whiteSpace=wrap;rounded=0;" vertex="1" parent="1">
          <mxGeometry x="180" y="390" width="130" height="30" as="geometry" />
        </mxCell>
        <mxCell id="15xAG6wFmT7k_TRVZSzg-41" value="245.10" style="text;html=1;strokeColor=none;fillColor=none;align=center;verticalAlign=middle;whiteSpace=wrap;rounded=0;" vertex="1" parent="1">
          <mxGeometry x="325" y="300" width="70" height="30" as="geometry" />
        </mxCell>
        <mxCell id="15xAG6wFmT7k_TRVZSzg-45" value="가격" style="text;html=1;strokeColor=none;fillColor=none;align=center;verticalAlign=middle;whiteSpace=wrap;rounded=0;" vertex="1" parent="1">
          <mxGeometry x="330" y="270" width="60" height="30" as="geometry" />
        </mxCell>
        <mxCell id="15xAG6wFmT7k_TRVZSzg-46" value="245.09" style="text;html=1;strokeColor=none;fillColor=none;align=center;verticalAlign=middle;whiteSpace=wrap;rounded=0;" vertex="1" parent="1">
          <mxGeometry x="325" y="330" width="70" height="30" as="geometry" />
        </mxCell>
        <mxCell id="15xAG6wFmT7k_TRVZSzg-48" value="245.08" style="text;html=1;strokeColor=none;fillColor=none;align=center;verticalAlign=middle;whiteSpace=wrap;rounded=0;" vertex="1" parent="1">
          <mxGeometry x="325" y="360" width="70" height="30" as="geometry" />
        </mxCell>
        <mxCell id="15xAG6wFmT7k_TRVZSzg-49" value="245.07" style="text;html=1;strokeColor=none;fillColor=none;align=center;verticalAlign=middle;whiteSpace=wrap;rounded=0;" vertex="1" parent="1">
          <mxGeometry x="325" y="390" width="70" height="30" as="geometry" />
        </mxCell>
        <mxCell id="15xAG6wFmT7k_TRVZSzg-50" value="수량" style="text;html=1;strokeColor=none;fillColor=none;align=center;verticalAlign=middle;whiteSpace=wrap;rounded=0;" vertex="1" parent="1">
          <mxGeometry x="405" y="270" width="60" height="30" as="geometry" />
        </mxCell>
        <mxCell id="15xAG6wFmT7k_TRVZSzg-51" value="100" style="text;html=1;strokeColor=none;fillColor=none;align=center;verticalAlign=middle;whiteSpace=wrap;rounded=0;" vertex="1" parent="1">
          <mxGeometry x="400" y="300" width="70" height="30" as="geometry" />
        </mxCell>
        <mxCell id="15xAG6wFmT7k_TRVZSzg-52" value="300" style="text;html=1;strokeColor=none;fillColor=none;align=center;verticalAlign=middle;whiteSpace=wrap;rounded=0;" vertex="1" parent="1">
          <mxGeometry x="400" y="330" width="70" height="30" as="geometry" />
        </mxCell>
        <mxCell id="15xAG6wFmT7k_TRVZSzg-53" value="200" style="text;html=1;strokeColor=none;fillColor=none;align=center;verticalAlign=middle;whiteSpace=wrap;rounded=0;" vertex="1" parent="1">
          <mxGeometry x="400" y="360" width="70" height="30" as="geometry" />
        </mxCell>
        <mxCell id="15xAG6wFmT7k_TRVZSzg-54" value="500" style="text;html=1;strokeColor=none;fillColor=none;align=center;verticalAlign=middle;whiteSpace=wrap;rounded=0;" vertex="1" parent="1">
          <mxGeometry x="400" y="390" width="70" height="30" as="geometry" />
        </mxCell>
        <mxCell id="15xAG6wFmT7k_TRVZSzg-55" value="" style="rounded=0;whiteSpace=wrap;html=1;dashed=1;fillColor=none;" vertex="1" parent="1">
          <mxGeometry x="170" y="450" width="300" height="160" as="geometry" />
        </mxCell>
        <mxCell id="15xAG6wFmT7k_TRVZSzg-56" value="최고 매수 주문" style="text;html=1;strokeColor=none;fillColor=none;align=left;verticalAlign=middle;whiteSpace=wrap;rounded=0;" vertex="1" parent="1">
          <mxGeometry x="180" y="480" width="130" height="30" as="geometry" />
        </mxCell>
        <mxCell id="15xAG6wFmT7k_TRVZSzg-59" value="매수 주문 깊이(depth)" style="text;html=1;strokeColor=none;fillColor=none;align=left;verticalAlign=middle;whiteSpace=wrap;rounded=0;" vertex="1" parent="1">
          <mxGeometry x="180" y="570" width="130" height="30" as="geometry" />
        </mxCell>
        <mxCell id="15xAG6wFmT7k_TRVZSzg-60" value="245.05" style="text;html=1;strokeColor=none;fillColor=none;align=center;verticalAlign=middle;whiteSpace=wrap;rounded=0;" vertex="1" parent="1">
          <mxGeometry x="325" y="480" width="70" height="30" as="geometry" />
        </mxCell>
        <mxCell id="15xAG6wFmT7k_TRVZSzg-61" value="가격" style="text;html=1;strokeColor=none;fillColor=none;align=center;verticalAlign=middle;whiteSpace=wrap;rounded=0;" vertex="1" parent="1">
          <mxGeometry x="330" y="450" width="60" height="30" as="geometry" />
        </mxCell>
        <mxCell id="15xAG6wFmT7k_TRVZSzg-62" value="245.04" style="text;html=1;strokeColor=none;fillColor=none;align=center;verticalAlign=middle;whiteSpace=wrap;rounded=0;" vertex="1" parent="1">
          <mxGeometry x="325" y="510" width="70" height="30" as="geometry" />
        </mxCell>
        <mxCell id="15xAG6wFmT7k_TRVZSzg-63" value="245.03" style="text;html=1;strokeColor=none;fillColor=none;align=center;verticalAlign=middle;whiteSpace=wrap;rounded=0;" vertex="1" parent="1">
          <mxGeometry x="325" y="540" width="70" height="30" as="geometry" />
        </mxCell>
        <mxCell id="15xAG6wFmT7k_TRVZSzg-64" value="245.02" style="text;html=1;strokeColor=none;fillColor=none;align=center;verticalAlign=middle;whiteSpace=wrap;rounded=0;" vertex="1" parent="1">
          <mxGeometry x="325" y="570" width="70" height="30" as="geometry" />
        </mxCell>
        <mxCell id="15xAG6wFmT7k_TRVZSzg-65" value="수량" style="text;html=1;strokeColor=none;fillColor=none;align=center;verticalAlign=middle;whiteSpace=wrap;rounded=0;" vertex="1" parent="1">
          <mxGeometry x="405" y="450" width="60" height="30" as="geometry" />
        </mxCell>
        <mxCell id="15xAG6wFmT7k_TRVZSzg-66" value="800" style="text;html=1;strokeColor=none;fillColor=none;align=center;verticalAlign=middle;whiteSpace=wrap;rounded=0;" vertex="1" parent="1">
          <mxGeometry x="400" y="480" width="70" height="30" as="geometry" />
        </mxCell>
        <mxCell id="15xAG6wFmT7k_TRVZSzg-67" value="200" style="text;html=1;strokeColor=none;fillColor=none;align=center;verticalAlign=middle;whiteSpace=wrap;rounded=0;" vertex="1" parent="1">
          <mxGeometry x="400" y="510" width="70" height="30" as="geometry" />
        </mxCell>
        <mxCell id="15xAG6wFmT7k_TRVZSzg-68" value="300" style="text;html=1;strokeColor=none;fillColor=none;align=center;verticalAlign=middle;whiteSpace=wrap;rounded=0;" vertex="1" parent="1">
          <mxGeometry x="400" y="540" width="70" height="30" as="geometry" />
        </mxCell>
        <mxCell id="15xAG6wFmT7k_TRVZSzg-69" value="600" style="text;html=1;strokeColor=none;fillColor=none;align=center;verticalAlign=middle;whiteSpace=wrap;rounded=0;" vertex="1" parent="1">
          <mxGeometry x="400" y="570" width="70" height="30" as="geometry" />
        </mxCell>
        <mxCell id="15xAG6wFmT7k_TRVZSzg-70" value="" style="rounded=0;whiteSpace=wrap;html=1;" vertex="1" parent="1">
          <mxGeometry x="40" y="680" width="530" height="390" as="geometry" />
        </mxCell>
        <mxCell id="15xAG6wFmT7k_TRVZSzg-71" value="TSLA&amp;nbsp;&amp;nbsp;" style="text;html=1;strokeColor=none;fillColor=none;align=center;verticalAlign=middle;whiteSpace=wrap;rounded=0;" vertex="1" parent="1">
          <mxGeometry x="40" y="680" width="60" height="30" as="geometry" />
        </mxCell>
        <mxCell id="15xAG6wFmT7k_TRVZSzg-72" value="매도 호가 창" style="text;html=1;strokeColor=none;fillColor=none;align=center;verticalAlign=middle;whiteSpace=wrap;rounded=0;" vertex="1" parent="1">
          <mxGeometry x="60" y="785" width="90" height="30" as="geometry" />
        </mxCell>
        <mxCell id="15xAG6wFmT7k_TRVZSzg-73" value="매수 호가 창" style="text;html=1;strokeColor=none;fillColor=none;align=center;verticalAlign=middle;whiteSpace=wrap;rounded=0;" vertex="1" parent="1">
          <mxGeometry x="60" y="955" width="90" height="30" as="geometry" />
        </mxCell>
        <mxCell id="15xAG6wFmT7k_TRVZSzg-74" value="" style="rounded=0;whiteSpace=wrap;html=1;dashed=1;fillColor=none;" vertex="1" parent="1">
          <mxGeometry x="170" y="710" width="380" height="160" as="geometry" />
        </mxCell>
        <mxCell id="15xAG6wFmT7k_TRVZSzg-75" value="매도 주문 깊이(depth)" style="text;html=1;strokeColor=none;fillColor=none;align=left;verticalAlign=middle;whiteSpace=wrap;rounded=0;" vertex="1" parent="1">
          <mxGeometry x="180" y="740" width="130" height="30" as="geometry" />
        </mxCell>
        <mxCell id="15xAG6wFmT7k_TRVZSzg-76" value="최저 매도 주문" style="text;html=1;strokeColor=none;fillColor=none;align=left;verticalAlign=middle;whiteSpace=wrap;rounded=0;" vertex="1" parent="1">
          <mxGeometry x="180" y="830" width="130" height="30" as="geometry" />
        </mxCell>
        <mxCell id="15xAG6wFmT7k_TRVZSzg-77" value="245.10" style="text;html=1;strokeColor=none;fillColor=none;align=center;verticalAlign=middle;whiteSpace=wrap;rounded=0;" vertex="1" parent="1">
          <mxGeometry x="325" y="740" width="70" height="30" as="geometry" />
        </mxCell>
        <mxCell id="15xAG6wFmT7k_TRVZSzg-78" value="가격" style="text;html=1;strokeColor=none;fillColor=none;align=center;verticalAlign=middle;whiteSpace=wrap;rounded=0;" vertex="1" parent="1">
          <mxGeometry x="330" y="710" width="60" height="30" as="geometry" />
        </mxCell>
        <mxCell id="15xAG6wFmT7k_TRVZSzg-79" value="245.09" style="text;html=1;strokeColor=none;fillColor=none;align=center;verticalAlign=middle;whiteSpace=wrap;rounded=0;" vertex="1" parent="1">
          <mxGeometry x="325" y="770" width="70" height="30" as="geometry" />
        </mxCell>
        <mxCell id="15xAG6wFmT7k_TRVZSzg-80" value="245.08" style="text;html=1;strokeColor=none;fillColor=none;align=center;verticalAlign=middle;whiteSpace=wrap;rounded=0;" vertex="1" parent="1">
          <mxGeometry x="325" y="800" width="70" height="30" as="geometry" />
        </mxCell>
        <mxCell id="15xAG6wFmT7k_TRVZSzg-81" value="245.07" style="text;html=1;strokeColor=none;fillColor=none;align=center;verticalAlign=middle;whiteSpace=wrap;rounded=0;" vertex="1" parent="1">
          <mxGeometry x="325" y="830" width="70" height="30" as="geometry" />
        </mxCell>
        <mxCell id="15xAG6wFmT7k_TRVZSzg-82" value="수량" style="text;html=1;strokeColor=none;fillColor=none;align=center;verticalAlign=middle;whiteSpace=wrap;rounded=0;" vertex="1" parent="1">
          <mxGeometry x="405" y="710" width="60" height="30" as="geometry" />
        </mxCell>
        <mxCell id="15xAG6wFmT7k_TRVZSzg-83" value="30" style="text;html=1;strokeColor=none;fillColor=none;align=center;verticalAlign=middle;whiteSpace=wrap;rounded=0;" vertex="1" parent="1">
          <mxGeometry x="422" y="740" width="26" height="30" as="geometry" />
        </mxCell>
        <mxCell id="15xAG6wFmT7k_TRVZSzg-84" value="200" style="text;html=1;strokeColor=none;fillColor=none;align=center;verticalAlign=middle;whiteSpace=wrap;rounded=0;" vertex="1" parent="1">
          <mxGeometry x="420" y="770" width="30" height="30" as="geometry" />
        </mxCell>
        <mxCell id="15xAG6wFmT7k_TRVZSzg-85" value="50" style="text;html=1;strokeColor=none;fillColor=none;align=center;verticalAlign=middle;whiteSpace=wrap;rounded=0;" vertex="1" parent="1">
          <mxGeometry x="420" y="800" width="30" height="30" as="geometry" />
        </mxCell>
        <mxCell id="15xAG6wFmT7k_TRVZSzg-86" value="50" style="text;html=1;strokeColor=none;fillColor=none;align=center;verticalAlign=middle;whiteSpace=wrap;rounded=0;" vertex="1" parent="1">
          <mxGeometry x="420" y="830" width="30" height="30" as="geometry" />
        </mxCell>
        <mxCell id="15xAG6wFmT7k_TRVZSzg-87" value="" style="rounded=0;whiteSpace=wrap;html=1;dashed=1;fillColor=none;" vertex="1" parent="1">
          <mxGeometry x="170" y="890" width="380" height="160" as="geometry" />
        </mxCell>
        <mxCell id="15xAG6wFmT7k_TRVZSzg-88" value="최고 매수 주문" style="text;html=1;strokeColor=none;fillColor=none;align=left;verticalAlign=middle;whiteSpace=wrap;rounded=0;" vertex="1" parent="1">
          <mxGeometry x="180" y="920" width="130" height="30" as="geometry" />
        </mxCell>
        <mxCell id="15xAG6wFmT7k_TRVZSzg-89" value="매수 주문 깊이(depth)" style="text;html=1;strokeColor=none;fillColor=none;align=left;verticalAlign=middle;whiteSpace=wrap;rounded=0;" vertex="1" parent="1">
          <mxGeometry x="180" y="1010" width="130" height="30" as="geometry" />
        </mxCell>
        <mxCell id="15xAG6wFmT7k_TRVZSzg-90" value="245.05" style="text;html=1;strokeColor=none;fillColor=none;align=center;verticalAlign=middle;whiteSpace=wrap;rounded=0;" vertex="1" parent="1">
          <mxGeometry x="325" y="920" width="70" height="30" as="geometry" />
        </mxCell>
        <mxCell id="15xAG6wFmT7k_TRVZSzg-91" value="가격" style="text;html=1;strokeColor=none;fillColor=none;align=center;verticalAlign=middle;whiteSpace=wrap;rounded=0;" vertex="1" parent="1">
          <mxGeometry x="330" y="890" width="60" height="30" as="geometry" />
        </mxCell>
        <mxCell id="15xAG6wFmT7k_TRVZSzg-92" value="245.04" style="text;html=1;strokeColor=none;fillColor=none;align=center;verticalAlign=middle;whiteSpace=wrap;rounded=0;" vertex="1" parent="1">
          <mxGeometry x="325" y="950" width="70" height="30" as="geometry" />
        </mxCell>
        <mxCell id="15xAG6wFmT7k_TRVZSzg-93" value="245.03" style="text;html=1;strokeColor=none;fillColor=none;align=center;verticalAlign=middle;whiteSpace=wrap;rounded=0;" vertex="1" parent="1">
          <mxGeometry x="325" y="980" width="70" height="30" as="geometry" />
        </mxCell>
        <mxCell id="15xAG6wFmT7k_TRVZSzg-94" value="245.02" style="text;html=1;strokeColor=none;fillColor=none;align=center;verticalAlign=middle;whiteSpace=wrap;rounded=0;" vertex="1" parent="1">
          <mxGeometry x="325" y="1010" width="70" height="30" as="geometry" />
        </mxCell>
        <mxCell id="15xAG6wFmT7k_TRVZSzg-95" value="수량" style="text;html=1;strokeColor=none;fillColor=none;align=center;verticalAlign=middle;whiteSpace=wrap;rounded=0;" vertex="1" parent="1">
          <mxGeometry x="405" y="890" width="60" height="30" as="geometry" />
        </mxCell>
        <mxCell id="15xAG6wFmT7k_TRVZSzg-96" value="500" style="text;html=1;strokeColor=none;fillColor=none;align=center;verticalAlign=middle;whiteSpace=wrap;rounded=0;" vertex="1" parent="1">
          <mxGeometry x="420" y="920" width="30" height="30" as="geometry" />
        </mxCell>
        <mxCell id="15xAG6wFmT7k_TRVZSzg-97" value="200" style="text;html=1;strokeColor=none;fillColor=none;align=center;verticalAlign=middle;whiteSpace=wrap;rounded=0;" vertex="1" parent="1">
          <mxGeometry x="420" y="950" width="30" height="30" as="geometry" />
        </mxCell>
        <mxCell id="15xAG6wFmT7k_TRVZSzg-98" value="100" style="text;html=1;strokeColor=none;fillColor=none;align=center;verticalAlign=middle;whiteSpace=wrap;rounded=0;" vertex="1" parent="1">
          <mxGeometry x="420" y="980" width="30" height="30" as="geometry" />
        </mxCell>
        <mxCell id="15xAG6wFmT7k_TRVZSzg-99" value="200" style="text;html=1;strokeColor=none;fillColor=none;align=center;verticalAlign=middle;whiteSpace=wrap;rounded=0;" vertex="1" parent="1">
          <mxGeometry x="420" y="1010" width="30" height="30" as="geometry" />
        </mxCell>
        <mxCell id="15xAG6wFmT7k_TRVZSzg-106" value="70" style="text;html=1;strokeColor=none;fillColor=none;align=center;verticalAlign=middle;whiteSpace=wrap;rounded=0;" vertex="1" parent="1">
          <mxGeometry x="450" y="740" width="30" height="30" as="geometry" />
        </mxCell>
        <mxCell id="15xAG6wFmT7k_TRVZSzg-107" value="100" style="text;html=1;strokeColor=none;fillColor=none;align=center;verticalAlign=middle;whiteSpace=wrap;rounded=0;" vertex="1" parent="1">
          <mxGeometry x="450" y="770" width="30" height="30" as="geometry" />
        </mxCell>
        <mxCell id="15xAG6wFmT7k_TRVZSzg-108" value="50" style="text;html=1;strokeColor=none;fillColor=none;align=center;verticalAlign=middle;whiteSpace=wrap;rounded=0;" vertex="1" parent="1">
          <mxGeometry x="450" y="800" width="30" height="30" as="geometry" />
        </mxCell>
        <mxCell id="15xAG6wFmT7k_TRVZSzg-109" value="100" style="text;html=1;strokeColor=none;fillColor=none;align=center;verticalAlign=middle;whiteSpace=wrap;rounded=0;" vertex="1" parent="1">
          <mxGeometry x="450" y="830" width="30" height="30" as="geometry" />
        </mxCell>
        <mxCell id="15xAG6wFmT7k_TRVZSzg-110" value="100" style="text;html=1;strokeColor=none;fillColor=none;align=center;verticalAlign=middle;whiteSpace=wrap;rounded=0;" vertex="1" parent="1">
          <mxGeometry x="480" y="800" width="30" height="30" as="geometry" />
        </mxCell>
        <mxCell id="15xAG6wFmT7k_TRVZSzg-111" value="150" style="text;html=1;strokeColor=none;fillColor=none;align=center;verticalAlign=middle;whiteSpace=wrap;rounded=0;" vertex="1" parent="1">
          <mxGeometry x="480" y="830" width="30" height="30" as="geometry" />
        </mxCell>
        <mxCell id="15xAG6wFmT7k_TRVZSzg-112" value="200" style="text;html=1;strokeColor=none;fillColor=none;align=center;verticalAlign=middle;whiteSpace=wrap;rounded=0;" vertex="1" parent="1">
          <mxGeometry x="510" y="830" width="30" height="30" as="geometry" />
        </mxCell>
        <mxCell id="15xAG6wFmT7k_TRVZSzg-113" value="100" style="text;html=1;strokeColor=none;fillColor=none;align=center;verticalAlign=middle;whiteSpace=wrap;rounded=0;" vertex="1" parent="1">
          <mxGeometry x="450" y="920" width="30" height="30" as="geometry" />
        </mxCell>
        <mxCell id="15xAG6wFmT7k_TRVZSzg-114" value="200" style="text;html=1;strokeColor=none;fillColor=none;align=center;verticalAlign=middle;whiteSpace=wrap;rounded=0;" vertex="1" parent="1">
          <mxGeometry x="450" y="950" width="30" height="30" as="geometry" />
        </mxCell>
        <mxCell id="15xAG6wFmT7k_TRVZSzg-115" value="200" style="text;html=1;strokeColor=none;fillColor=none;align=center;verticalAlign=middle;whiteSpace=wrap;rounded=0;" vertex="1" parent="1">
          <mxGeometry x="450" y="1010" width="30" height="30" as="geometry" />
        </mxCell>
        <mxCell id="15xAG6wFmT7k_TRVZSzg-116" value="50" style="text;html=1;strokeColor=none;fillColor=none;align=center;verticalAlign=middle;whiteSpace=wrap;rounded=0;" vertex="1" parent="1">
          <mxGeometry x="450" y="980" width="30" height="30" as="geometry" />
        </mxCell>
        <mxCell id="15xAG6wFmT7k_TRVZSzg-117" value="200" style="text;html=1;strokeColor=none;fillColor=none;align=center;verticalAlign=middle;whiteSpace=wrap;rounded=0;" vertex="1" parent="1">
          <mxGeometry x="480" y="920" width="30" height="30" as="geometry" />
        </mxCell>
        <mxCell id="15xAG6wFmT7k_TRVZSzg-119" value="200" style="text;html=1;strokeColor=none;fillColor=none;align=center;verticalAlign=middle;whiteSpace=wrap;rounded=0;" vertex="1" parent="1">
          <mxGeometry x="480" y="1010" width="30" height="30" as="geometry" />
        </mxCell>
        <mxCell id="15xAG6wFmT7k_TRVZSzg-120" value="70" style="text;html=1;strokeColor=none;fillColor=none;align=center;verticalAlign=middle;whiteSpace=wrap;rounded=0;" vertex="1" parent="1">
          <mxGeometry x="480" y="980" width="30" height="30" as="geometry" />
        </mxCell>
        <mxCell id="15xAG6wFmT7k_TRVZSzg-121" value="80" style="text;html=1;strokeColor=none;fillColor=none;align=center;verticalAlign=middle;whiteSpace=wrap;rounded=0;" vertex="1" parent="1">
          <mxGeometry x="510" y="980" width="30" height="30" as="geometry" />
        </mxCell>
      </root>
    </mxGraphModel>
  </diagram>
</mxfile>
